<svg xmlns="http://www.w3.org/2000/svg" version="1.1" xmlns:xlink="http://www.w3.org/1999/xlink" xmlns:svgjs="http://svgjs.dev/svgjs" width="100%" height="100%" viewBox="0 0 1000 600"><rect width="1000" height="600" x="0" y="0" fill="#ffffff"/><g><rect width="333.3333333333333" height="333.3333333333333" y="275.2595962902285" fill="#0000ff" transform="matrix(0.49399819060276806,0,0,0.4939981906027682,0,81.68923111098195)" x="253.03749084472656"/><path d="M397.5815602185742 514.346211869077L312.0005868264552 514.346211869077L312.0005868264552 369.4788681989026L395.41321612044163 369.4788681989026L395.41321612044163 384.9043034286559L330.1982088145806 384.9043034286559L330.1982088145806 430.35718730849845L385.1204435027237 430.35718730849845L385.1204435027237 445.97475429378255L330.1982088145806 445.97475429378255L330.1982088145806 498.72864488379304L397.5815602185742 498.72864488379304L397.5815602185742 514.346211869077ZM482.9429544615152 516.9262668719184L482.9429544615152 516.9262668719184Q469.521178968011 516.9262668719184 457.9383788488724 511.87594644082475Q446.383026123381 506.82562600973114 437.9017814863814 497.1641434458999Q429.3930894557345 487.4752134884214 424.64469035476066 473.53193751561946Q419.8962912537868 459.61610893646474 419.8962912537868 442.02232960857884L419.8962912537868 442.02232960857884Q419.8962912537868 424.42855028069295 424.75447992934966 410.48527430789096Q429.58522121126526 396.5694457287363 438.2860449974429 386.8805157712578Q446.9868687836205 377.1915858137793 458.6520110837008 372.0589232017439Q470.28970599013394 366.92626058970853 484.12319238834687 366.92626058970853L484.12319238834687 366.92626058970853Q497.38028351996763 366.92626058970853 507.45347698850765 372.3608445318637Q517.5266704570477 377.7954284740187 523.8670183895618 384.7121716731252L523.8670183895618 384.7121716731252L513.9859566765526 396.5694457287363Q508.2494514042778 390.4486769454 500.92099730046255 386.688384015727Q493.61999059029466 382.9280910860541 484.34277153752487 382.9280910860541L484.34277153752487 382.9280910860541Q470.7014168948426 382.9280910860541 460.4086442771247 390.03696604069125Q450.143319053054 397.1458409953285 444.40681378077915 410.2931425523603Q438.6703085085044 423.440444109392 438.6703085085044 441.41848694833936L438.6703085085044 441.41848694833936Q438.6703085085044 459.8082406919955 444.2146820252484 473.147674004558Q449.7590555419925 486.48710731712043 459.8322490105325 493.7057718463467Q469.90544247907246 500.89698898192563 483.7389288772854 500.89698898192563L483.7389288772854 500.89698898192563Q494.0042541013561 500.89698898192563 502.21102480188324 496.56030078566044Q510.4177955024104 492.22361258939526 517.3345387015169 484.51089497451864L517.3345387015169 484.51089497451864L527.4077321700568 496.17603727459897Q518.9264875330572 506.0570989876082 508.05731964874707 511.4916829297633Q497.1881517644369 516.9262668719184 482.9429544615152 516.9262668719184Z " fill="#ffffff" transform="matrix(0.49399819060276806,0,0,0.4939981906027682,0,81.68923111098195)"/><path d="M732.7704942453454 482.8445373163509L669.7041543175653 482.8445373163509L669.7041543175653 376.0888791576522L731.1725978841218 376.0888791576522L731.1725978841218 387.45619251217823L683.1143478301112 387.45619251217823L683.1143478301112 420.951336489216L723.5876468023652 420.951336489216L723.5876468023652 432.4602355972682L683.1143478301112 432.4602355972682L683.1143478301112 471.3356382082987L732.7704942453454 471.3356382082987L732.7704942453454 482.8445373163509ZM774.7001038252965 484.74583172084465L774.7001038252965 484.74583172084465Q766.4072239759092 484.74583172084465 761.4517226024948 481.4691328535257Q756.4962212290804 478.1924339862068 754.3926614624065 472.2053792656735Q752.2891016957326 466.2385510813582 752.2891016957326 458.3704284925492L752.2891016957326 458.3704284925492L752.2891016957326 414.5395245081043L740.4768045444102 414.5395245081043L740.4768045444102 404.48693600774936L753.0172569995814 403.7587807039007L754.4735676072786 381.489364327863L765.5374829185345 381.489364327863L765.5374829185345 403.7587807039007L787.0787439907235 403.7587807039007L787.0787439907235 414.5395245081043L765.5374829185345 414.5395245081043L765.5374829185345 458.8154122893456Q765.5374829185345 465.95537957430594 768.2276122355308 469.9602337454735Q770.9177415525272 473.96508791664104 777.7745373304352 473.96508791664104L777.7745373304352 473.96508791664104Q779.9590032419812 473.96508791664104 782.4266406605794 473.29761222144646Q784.8942780791776 472.6503630624699 786.7955724836713 471.78062200509515L786.7955724836713 471.78062200509515L789.4250221920136 481.83321050545004Q786.0674171798227 482.98612306987707 782.2850549070533 483.85586412725183Q778.5026926342839 484.74583172084465 774.7001038252965 484.74583172084465ZM834.2672529873595 484.74583172084465L834.2672529873595 484.74583172084465Q823.6483214729001 484.74583172084465 815.0520435802424 479.79033034743026Q806.4557656875847 474.8348289740158 801.4395847055163 465.5913019223816Q796.4031771872299 456.3477748707474 796.4031771872299 443.3825651549979L796.4031771872299 443.3825651549979Q796.4031771872299 433.6131481616952 799.3157984026244 425.96751747128445Q802.228419618019 418.3218867808736 807.2648271363055 412.8607220020088Q812.281008118374 407.399557223144 818.6928200994856 404.56784215262144Q825.1046320805973 401.7361270820989 831.7996155687613 401.7361270820989L831.7996155687613 401.7361270820989Q841.9937898226423 401.7361270820989 848.9719448178585 406.24664465871695Q855.9703263492927 410.75716223533493 859.6920090134081 419.13094822959437Q863.3934651413053 427.5047342238538 863.3934651413053 438.8720475783799L863.3934651413053 438.8720475783799Q863.3934651413053 441.05651348992586 863.2518793877791 442.9375813582015Q863.110293634253 444.8388757626952 862.8068955909828 446.4367721239186L862.8068955909828 446.4367721239186L809.5099726565055 446.4367721239186Q809.9549564533019 454.8914642630501 813.3732410741469 461.0807843457636Q816.791525694992 467.2701044284771 822.475182372255 470.68838904932215Q828.1588390495181 474.1066736701672 835.7235635950567 474.1066736701672L835.7235635950567 474.1066736701672Q841.5488060258459 474.1066736701672 846.2818155008621 472.4278711640717Q851.0148249758784 470.7490686579762 855.5253425524963 467.83644744258163L855.5253425524963 467.83644744258163L860.1976724188585 476.7361233785095Q855.1005852919179 480.07350185448246 848.6887733108063 482.39955351955456Q842.2769613296946 484.74583172084465 834.2672529873595 484.74583172084465ZM809.3683869029793 436.9707531738862L809.3683869029793 436.9707531738862L851.7429802797269 436.9707531738862Q851.7429802797269 425.0370968052556 846.5852135441323 418.68596443279796Q841.4072202723198 412.35505859655837 832.0827870758135 412.35505859655837L832.0827870758135 412.35505859655837Q826.5609426882946 412.35505859655837 821.6661209235342 415.2676798119529Q816.791525694992 418.1803010273475 813.514826827673 423.5807861975583Q810.2381279603542 428.9610448315511 809.3683869029793 436.9707531738862ZM896.3020395680205 482.8445373163509L882.9120725916927 482.8445373163509L882.9120725916927 403.7587807039007L893.8344021494223 403.7587807039007L895.1491270035935 418.1803010273475L895.4322985106458 418.1803010273475Q899.5180588266853 410.6155764818088 905.4039808661287 406.1657385138449Q911.3101294417899 401.7361270820989 917.8635271764276 401.7361270820989L917.8635271764276 401.7361270820989Q920.6345626382962 401.7361270820989 922.5965366514439 402.10020473402324Q924.5585106645916 402.46428238594757 926.3182193155592 403.47560919684844L926.3182193155592 403.47560919684844L923.8303553607429 414.98450830490066Q921.7874752027232 414.39793875457815 920.1895788414997 414.0338611026538Q918.5916824802764 413.6697834507295 916.1240450616781 413.6697834507295L916.1240450616781 413.6697834507295Q911.3101294417899 413.6697834507295 905.768058518053 417.8162233754232Q900.246214130534 421.9626633001169 896.3020395680205 432.01525180047184L896.3020395680205 432.01525180047184L896.3020395680205 482.8445373163509ZM952.8149817611627 482.8445373163509L939.4250147848348 482.8445373163509L939.4250147848348 403.7587807039007L950.3473443425646 403.7587807039007L951.6418426605177 415.2676798119529L951.9452407037879 415.2676798119529Q957.628897381051 409.58402313468986 963.9598032172905 405.66007510839444Q970.2907090535302 401.7361270820989 978.4420031493914 401.7361270820989L978.4420031493914 401.7361270820989Q990.9622290683446 401.7361270820989 996.7874714991337 409.66492927956193Q1002.612713929923 417.593731477025 1002.612713929923 432.74340710432045L1002.612713929923 432.74340710432045L1002.612713929923 482.8445373163509L989.3643327071212 482.8445373163509L989.3643327071212 434.503115755288Q989.3643327071212 423.2773881542881 985.8044623327501 418.3218867808736Q982.2243654221609 413.3866119436772 974.3764693695698 413.3866119436772L974.3764693695698 413.3866119436772Q968.2478288955105 413.3866119436772 963.4541398118402 416.440818912598Q958.6402241919518 419.4950258815187 952.8149817611627 425.46185406583396L952.8149817611627 425.46185406583396L952.8149817611627 482.8445373163509ZM1046.4638444505858 484.74583172084465L1046.4638444505858 484.74583172084465Q1039.9104467159482 484.74583172084465 1034.6515472992633 482.1163820125023Q1029.4128744187967 479.48693230415995 1026.439573594748 474.47075132209153Q1023.4460462344814 469.45457034002305 1023.4460462344814 462.3146030550627L1023.4460462344814 462.3146030550627Q1023.4460462344814 449.34939333931317 1035.0156249511876 442.431917952751Q1046.605430204112 435.5144425661889 1071.9492800852886 432.74340710432045L1071.9492800852886 432.74340710432045Q1071.9492800852886 427.6463199773799 1070.5536490862453 423.05489625588984Q1069.1782446234201 418.4836990706178 1065.679053857703 415.63175746387725Q1062.179863091986 412.8000423933547 1055.626465357348 412.8000423933547L1055.626465357348 412.8000423933547Q1048.789896115658 412.8000423933547 1042.7421617864707 415.49017171035115Q1036.6944274572832 418.1803010273475 1031.900738373613 421.23450799626823L1031.900738373613 421.23450799626823L1026.8036512466724 412.0718870895061Q1030.4444277659156 409.745835424434 1035.2381168495858 407.3388776144899Q1040.0520324694742 404.93191980454577 1045.7356891467373 403.33402344332234Q1051.3991192877822 401.7361270820989 1057.810931268894 401.7361270820989L1057.810931268894 401.7361270820989Q1067.4185359724524 401.7361270820989 1073.4662703016397 405.80166086192054Q1079.5140046308272 409.88742117796016 1082.3457197013497 417.0880680715746Q1085.1976613080901 424.308941501407 1085.1976613080901 434.19971771201773L1085.1976613080901 434.19971771201773L1085.1976613080901 482.8445373163509L1074.2753317503607 482.8445373163509L1073.1021926497156 473.37851836631853L1072.6774353891371 473.37851836631853Q1067.1353644654002 478.0306216964627 1060.5010605858904 481.38822670865363Q1053.8869832425985 484.74583172084465 1046.4638444505858 484.74583172084465ZM1050.2462067233553 473.96508791664104L1050.2462067233553 473.96508791664104Q1055.9298634006182 473.96508791664104 1061.087630136213 471.3356382082987Q1066.2656234080255 468.7264150361744 1071.9492800852886 463.6293279092339L1071.9492800852886 463.6293279092339L1071.9492800852886 441.6228565040304Q1058.6806723262687 443.07916711172766 1050.8327762736776 445.789522964942Q1042.9646536848688 448.47965228193846 1039.6070486726778 452.34292069957985Q1036.2696701967047 456.18596258100325 1036.2696701967047 461.44486199768795L1036.2696701967047 461.44486199768795Q1036.2696701967047 468.28143123937804 1040.3352039765264 471.1131463099005Q1044.4209642925662 473.96508791664104 1050.2462067233553 473.96508791664104ZM1124.2146496726468 484.74583172084465L1124.2146496726468 484.74583172084465Q1119.2793748354504 484.74583172084465 1116.2049413303118 482.7029515628248Q1113.1507343613912 480.660071404805 1111.6944237536939 476.6552172336374Q1110.2381131459965 472.6503630624699 1110.2381131459965 467.10829213873296L1110.2381131459965 467.10829213873296L1110.2381131459965 366.92625825089L1123.6483066585424 366.92625825089L1123.6483066585424 467.9982597323257Q1123.6483066585424 471.0524667012465 1124.7405396143154 472.3671915554176Q1125.8327725700883 473.6616898733708 1127.2890831777856 473.6616898733708L1127.2890831777856 473.6616898733708Q1127.8554261918903 473.6616898733708 1128.4419957422126 473.60101026471676Q1129.0285652925352 473.5201041198447 1130.0398921034362 473.37851836631853L1130.0398921034362 473.37851836631853L1131.9411865079298 483.5726926201996Q1130.4848759002325 484.017676416996 1128.745393785483 484.3817540689203Q1126.9856851345153 484.74583172084465 1124.2146496726468 484.74583172084465ZM1225.7316349508792 484.74583172084465L1225.7316349508792 484.74583172084465Q1215.8206322040503 484.74583172084465 1207.3052604562647 481.0241490567293Q1198.7898887084793 477.302466392614 1192.5196624808937 470.1827256438717Q1186.2696627895261 463.0427583589114 1182.770472023809 452.7676779601582Q1179.2712812580917 442.51282409762314 1179.2712812580917 429.54761438187364L1179.2712812580917 429.54761438187364Q1179.2712812580917 416.5824046661241 1182.831151632463 406.307324267371Q1186.4112485430521 396.05247040483584 1192.8230605241638 388.9125031198755Q1199.2146459690575 381.7725358349152 1207.8109238617153 377.99017356214586Q1216.4072017543726 374.2078112893765 1226.6013760082537 374.2078112893765L1226.6013760082537 374.2078112893765Q1236.3505664653385 374.2078112893765 1243.7939317935693 378.21266546054403Q1251.2170705855817 382.2175196317116 1255.8691739157257 387.31460675865213L1255.8691739157257 387.31460675865213L1248.5876208772393 396.05247040483584Q1244.3602748076735 391.54195282821786 1238.980016173681 388.7709173663494Q1233.5997575396882 385.99988190448096 1226.74296176178 385.99988190448096L1226.74296176178 385.99988190448096Q1216.690373261425 385.99988190448096 1209.1256487158862 391.2385547849476Q1201.5609241703478 396.47722766541426 1197.3335781007818 406.1657385138449Q1193.1062320312162 415.8542493622755 1193.1062320312162 429.10263058507724L1193.1062320312162 429.10263058507724Q1193.1062320312162 442.65440985114924 1197.1919923472556 452.484506453106Q1201.2575261270772 462.3146030550627 1208.6806649190898 467.63418208040144Q1216.1240302473207 472.9335345695221 1226.3182045012015 472.9335345695221L1226.3182045012015 472.9335345695221Q1233.8829290467402 472.9335345695221 1239.9306633759277 469.7377418470753Q1245.9783977051152 466.54194912462845 1251.0754848320557 460.8582924473654L1251.0754848320557 460.8582924473654L1258.4986236240682 469.45457034002305Q1252.2283973964825 476.7361233785095 1244.2186890541475 480.7409775496771Q1236.2089807118123 484.74583172084465 1225.7316349508792 484.74583172084465ZM1298.2437672924734 484.74583172084465L1298.2437672924734 484.74583172084465Q1285.7235413735202 484.74583172084465 1279.837619334077 476.87770913203565Q1273.9314707584158 469.00958654322665 1273.9314707584158 453.8599109159312L1273.9314707584158 453.8599109159312L1273.9314707584158 403.7587807039007L1287.3214377347438 403.7587807039007L1287.3214377347438 452.2620145547078Q1287.3214377347438 463.1843441124375 1290.8206285004608 468.20052509450596Q1294.319819266178 473.23693261279243 1302.187941854987 473.23693261279243L1302.187941854987 473.23693261279243Q1308.2963557928283 473.23693261279243 1313.1102714127167 470.0209133541276Q1317.9039604963868 466.8251206316807 1323.58761717365 459.82673910024647L1323.58761717365 459.82673910024647L1323.58761717365 403.7587807039007L1336.835998396452 403.7587807039007L1336.835998396452 482.8445373163509L1325.7720830851958 482.8445373163509L1324.760756274295 470.4658971509239L1324.3157724774987 470.4658971509239Q1318.7939280899795 476.87770913203565 1312.604608007266 480.8016571583311Q1306.4152879245526 484.74583172084465 1298.2437672924734 484.74583172084465ZM1376.884540108127 482.8445373163509L1363.4945731317994 482.8445373163509L1363.4945731317994 403.7587807039007L1374.4169026895293 403.7587807039007L1375.7316275437001 418.1803010273475L1376.0147990507526 418.1803010273475Q1380.1005593667921 410.6155764818088 1385.9864814062353 406.1657385138449Q1391.8926299818966 401.7361270820989 1398.4460277165344 401.7361270820989L1398.4460277165344 401.7361270820989Q1401.217063178403 401.7361270820989 1403.1790371915504 402.10020473402324Q1405.1410112046983 402.46428238594757 1406.900719855666 403.47560919684844L1406.900719855666 403.47560919684844L1404.4128559008495 414.98450830490066Q1402.3699757428299 414.39793875457815 1400.7720793816065 414.0338611026538Q1399.174183020383 413.6697834507295 1396.706545601785 413.6697834507295L1396.706545601785 413.6697834507295Q1391.8926299818966 413.6697834507295 1386.3505590581594 417.8162233754232Q1380.8287146706407 421.9626633001169 1376.884540108127 432.01525180047184L1376.884540108127 432.01525180047184L1376.884540108127 482.8445373163509ZM1433.3974823012695 482.8445373163509L1420.0075153249416 482.8445373163509L1420.0075153249416 403.7587807039007L1433.3974823012695 403.7587807039007L1433.3974823012695 482.8445373163509ZM1426.7024988131054 387.45619251217823L1426.7024988131054 387.45619251217823Q1422.758324250592 387.45619251217823 1420.371592976866 385.0492347022341Q1417.9646351669217 382.64227689228994 1417.9646351669217 378.57674311246836L1417.9646351669217 378.57674311246836Q1417.9646351669217 374.63256854995484 1420.371592976866 372.3065168848828Q1422.758324250592 369.98046521981075 1426.7024988131054 369.98046521981075L1426.7024988131054 369.98046521981075Q1430.626446839401 369.98046521981075 1433.114310794217 372.3065168848828Q1435.5819482128154 374.63256854995484 1435.5819482128154 378.57674311246836L1435.5819482128154 378.57674311246836Q1435.5819482128154 382.64227689228994 1433.114310794217 385.0492347022341Q1430.626446839401 387.45619251217823 1426.7024988131054 387.45619251217823ZM1490.7801655517865 484.74583172084465L1490.7801655517865 484.74583172084465Q1481.172560848228 484.74583172084465 1472.7178687090964 479.8510099560843Q1464.2631765699648 474.97641472754196 1459.2469955878964 465.73288767590776Q1454.2308146058278 456.48936062427356 1454.2308146058278 443.3825651549979L1454.2308146058278 443.3825651549979Q1454.2308146058278 430.13418393219615 1459.2469955878964 420.8704303443439Q1464.2631765699648 411.6269032927097 1472.7178687090964 406.6714019192953Q1481.172560848228 401.7361270820989 1490.7801655517865 401.7361270820989L1490.7801655517865 401.7361270820989Q1498.061718590273 401.7361270820989 1504.6757959335646 404.48693600774936Q1511.3100998130747 407.2579714696178 1516.4071869400152 412.6584566398286Q1521.5042740669555 418.0387152738214 1524.4168952823502 425.76525210910427Q1527.3295164977449 433.4715624081691 1527.3295164977449 443.3825651549979L1527.3295164977449 443.3825651549979Q1527.3295164977449 456.48936062427356 1522.2324293708043 465.73288767590776Q1517.1353422438638 474.97641472754196 1508.8424623944766 479.8510099560843Q1500.529356008871 484.74583172084465 1490.7801655517865 484.74583172084465ZM1490.7801655517865 473.6616898733708L1490.7801655517865 473.6616898733708Q1497.6167347934766 473.6616898733708 1502.794728065289 469.87932760060147Q1507.9524948008836 466.09696532783204 1510.865116016278 459.260396086142Q1513.7777372316727 452.40360030823393 1513.7777372316727 443.3825651549979L1513.7777372316727 443.3825651549979Q1513.7777372316727 434.19971771201773 1510.865116016278 427.36314847032764Q1507.9524948008836 420.50635269241957 1502.794728065289 416.72399041965025Q1497.6167347934766 412.9416281468809 1490.7801655517865 412.9416281468809L1490.7801655517865 412.9416281468809Q1483.9233697738782 412.9416281468809 1478.7656030382836 416.72399041965025Q1473.5876097664711 420.50635269241957 1470.7558946959487 427.36314847032764Q1467.903953089208 434.19971771201773 1467.903953089208 443.3825651549979L1467.903953089208 443.3825651549979Q1467.903953089208 452.40360030823393 1470.7558946959487 459.260396086142Q1473.5876097664711 466.09696532783204 1478.7656030382836 469.87932760060147Q1483.9233697738782 473.6616898733708 1490.7801655517865 473.6616898733708ZM1568.247799266795 484.74583172084465L1568.247799266795 484.74583172084465Q1559.9549194174078 484.74583172084465 1552.167702973471 481.61071860705187Q1544.360259993316 478.4756054932591 1538.838415605797 473.82350216311494L1538.838415605797 473.82350216311494L1545.2502275869087 464.923826227187Q1550.4889004673755 469.1511722967528 1556.0107448548943 471.78062200509515Q1561.5528157786312 474.38984517721946 1568.6927830635916 474.38984517721946L1568.6927830635916 474.38984517721946Q1576.5609056524006 474.38984517721946 1580.403947533824 470.82997480284826Q1584.2672159514655 467.2701044284771 1584.2672159514655 462.01120501179247L1584.2672159514655 462.01120501179247Q1584.2672159514655 457.94567123197083 1581.5770866344692 455.25554191497446Q1578.8869573174725 452.54518606176003 1574.740517392779 450.5832120486123Q1570.5738509318674 448.62123803546456 1566.2049191087754 447.0233416742411L1566.2049191087754 447.0233416742411Q1560.6830747212564 444.8388757626952 1555.3634956959177 442.1487464456988Q1550.043916670579 439.4383905924844 1546.625632049734 435.15036491426457Q1543.2073474288889 430.86233923604476 1543.2073474288889 424.14712921166284L1543.2073474288889 424.14712921166284Q1543.2073474288889 417.75554376676916 1546.4031401513357 412.71913624848264Q1549.6191594100005 407.7029552664142 1555.727573347842 404.70942790614754Q1561.8359872856836 401.7361270820989 1570.432265178341 401.7361270820989L1570.432265178341 401.7361270820989Q1577.7138182168276 401.7361270820989 1584.044724053067 404.3453502542232Q1590.395856425525 406.97479996256556 1594.906374002143 410.75716223533493L1594.906374002143 410.75716223533493L1588.494562021031 419.0500420847223Q1584.4088017049917 416.13742086932774 1580.1207760267716 414.1147672475259Q1575.8327503485518 412.0718870895061 1570.5738509318674 412.0718870895061L1570.5738509318674 412.0718870895061Q1563.0091263863285 412.0718870895061 1559.4492560119575 415.49017171035115Q1555.869159101368 418.9084563311962 1555.869159101368 423.5807861975583L1555.869159101368 423.5807861975583Q1555.869159101368 427.22156271680154 1558.2761169113123 429.68920013539974Q1560.6830747212564 432.15683755399795 1564.607022747552 433.8356400600934Q1568.5511973100656 435.5144425661889 1572.9201291331574 437.25392468093844L1572.9201291331574 437.25392468093844Q1577.2890609562492 438.8720475783799 1581.5770866344692 440.75311544665556Q1585.8651123126888 442.65440985114924 1589.303623469752 445.2636330232736Q1592.721908090597 447.8930827316159 1594.8254678572707 451.75635114925734Q1596.9492541601626 455.61961956689873 1596.9492541601626 461.2830497079438L1596.9492541601626 461.2830497079438Q1596.9492541601626 467.6948616890555 1593.6725552928438 473.0953468592663Q1590.395856425525 478.4756054932591 1584.044724053067 481.61071860705187Q1577.7138182168276 484.74583172084465 1568.247799266795 484.74583172084465ZM1629.1296732830292 482.8445373163509L1615.7194797704833 482.8445373163509L1615.7194797704833 403.7587807039007L1629.1296732830292 403.7587807039007L1629.1296732830292 482.8445373163509ZM1622.4346897948653 387.45619251217823L1622.4346897948653 387.45619251217823Q1618.4905152323518 387.45619251217823 1616.0835574224077 385.0492347022341Q1613.6968261486816 382.64227689228994 1613.6968261486816 378.57674311246836L1613.6968261486816 378.57674311246836Q1613.6968261486816 374.63256854995484 1616.0835574224077 372.3065168848828Q1618.4905152323518 369.98046521981075 1622.4346897948653 369.98046521981075L1622.4346897948653 369.98046521981075Q1626.3586378211608 369.98046521981075 1628.826275239759 372.3065168848828Q1631.314139194575 374.63256854995484 1631.314139194575 378.57674311246836L1631.314139194575 378.57674311246836Q1631.314139194575 382.64227689228994 1628.826275239759 385.0492347022341Q1626.3586378211608 387.45619251217823 1622.4346897948653 387.45619251217823ZM1680.525301813013 484.74583172084465L1680.525301813013 484.74583172084465Q1672.2324219636257 484.74583172084465 1667.2769205902111 481.4691328535257Q1662.3214192167966 478.1924339862068 1660.217859450123 472.2053792656735Q1658.114299683449 466.2385510813582 1658.114299683449 458.3704284925492L1658.114299683449 458.3704284925492L1658.114299683449 414.5395245081043L1646.3020025321266 414.5395245081043L1646.3020025321266 404.48693600774936L1658.8424549872977 403.7587807039007L1660.2987655949948 381.489364327863L1671.3626809062507 381.489364327863L1671.3626809062507 403.7587807039007L1692.90394197844 403.7587807039007L1692.90394197844 414.5395245081043L1671.3626809062507 414.5395245081043L1671.3626809062507 458.8154122893456Q1671.3626809062507 465.95537957430594 1674.052810223247 469.9602337454735Q1676.7429395402435 473.96508791664104 1683.5997353181515 473.96508791664104L1683.5997353181515 473.96508791664104Q1685.7842012296974 473.96508791664104 1688.2518386482957 473.29761222144646Q1690.719476066894 472.6503630624699 1692.6207704713875 471.78062200509515L1692.6207704713875 471.78062200509515L1695.2502201797297 481.83321050545004Q1691.8926151675391 482.98612306987707 1688.1102528947695 483.85586412725183Q1684.3278906220003 484.74583172084465 1680.525301813013 484.74583172084465ZM1711.997792168249 516.9262508437112L1711.997792168249 516.9262508437112Q1709.2267567063805 516.9262508437112 1706.9007050413084 516.4812670469148Q1704.554426840018 516.0565097863364 1702.6733589717428 515.3283544824878L1702.6733589717428 515.3283544824878L1705.2825821438669 504.68919643181033Q1706.455721244512 505.13418022860674 1708.0536176057353 505.5589374891851Q1709.6515139669586 506.0039212859815 1711.4112226179263 506.0039212859815L1711.4112226179263 506.0039212859815Q1718.1062061060902 506.0039212859815 1722.3942317843098 501.1293260574392Q1726.702483998748 496.2345042926788 1729.1701214173459 488.9529512541924L1729.1701214173459 488.9529512541924L1730.9298300683135 482.98612306987707L1699.1741682060256 403.7587807039007L1713.0091189791497 403.7587807039007L1729.02853566382 447.60991122456363Q1730.9298300683135 452.8485841050303 1732.8918040814615 458.6738265358195Q1734.853778094609 464.49906896660866 1736.896658252629 470.0209133541276L1736.896658252629 470.0209133541276L1737.6248135564774 470.0209133541276Q1739.2227099177007 464.49906896660866 1740.9015124237967 458.7345061444735Q1742.5803149298922 452.99016985855644 1744.0366255375893 447.60991122456363L1744.0366255375893 447.60991122456363L1758.296333571292 403.7587807039007L1771.2615432870416 403.7587807039007L1741.5487615827733 489.5395208045149Q1738.7777261209048 497.2660576397978 1734.853778094609 503.4553777225113Q1730.9298300683135 509.6446978052248 1725.3877591445766 513.2854743244679Q1719.8456882208397 516.9262508437112 1711.997792168249 516.9262508437112Z " fill="#0000ff" transform="matrix(0.49399819060276806,0,0,0.4939981906027682,0,81.68923111098195)"/></g></svg>